<?xml version="1.0" encoding="UTF-8" standalone="no"?>
<svg
   xmlns:dc="http://purl.org/dc/elements/1.1/"
   xmlns:cc="http://creativecommons.org/ns#"
   xmlns:rdf="http://www.w3.org/1999/02/22-rdf-syntax-ns#"
   xmlns:svg="http://www.w3.org/2000/svg"
   xmlns="http://www.w3.org/2000/svg"
   height="27"
   width="40"
   xml:space="preserve"
   viewBox="0 0 40 27"
   y="0px"
   x="0px"
   id="Capa_1"
   version="1.1"><metadata
     id="metadata81"><rdf:RDF><cc:Work
         rdf:about=""><dc:format>image/svg+xml</dc:format><dc:type
           rdf:resource="http://purl.org/dc/dcmitype/StillImage" /><dc:title></dc:title></cc:Work></rdf:RDF></metadata><defs
     id="defs79" /><g
     style="stroke-width:12.73514748"
     transform="matrix(0.07814314,0,0,0.0789044,0.03389828,-6.6740987)"
     id="g4580"><rect
       x="0"
       y="85.333"
       style="fill:#f0f0f0;stroke-width:66.04943085"
       width="512"
       height="341.33701"
       id="rect2" /><polygon
       style="fill:#d80027;stroke-width:66.04943085"
       points="512,287.996 512,223.996 288,223.996 288,85.33 224,85.33 224,223.996 0,223.996 0,287.996 224,287.996 224,426.662 288,426.662 288,287.996 "
       id="polygon4" /><g
       style="stroke-width:12.73514748"
       id="g12"><polygon
         style="fill:#0052b4;stroke-width:12.73514748"
         points="512,381.034 512,315.358 393.785,315.358 "
         id="polygon6" /><polygon
         style="fill:#0052b4;stroke-width:12.73514748"
         points="512,426.662 512,395.188 368.307,315.358 311.652,315.358 "
         id="polygon8" /><polygon
         style="fill:#0052b4;stroke-width:12.73514748"
         points="311.652,344.998 311.652,426.662 458.634,426.662 "
         id="polygon10" /></g><polygon
       style="fill:#f0f0f0;stroke-width:66.04943085"
       points="512,426.662 512,395.188 368.307,315.358 311.652,315.358 "
       id="polygon14" /><polygon
       style="fill:#d80027;stroke-width:66.04943085"
       points="512,426.662 512,395.188 368.307,315.358 311.652,315.358 "
       id="polygon16" /><g
       style="stroke-width:12.73514748"
       id="g22"><polygon
         style="fill:#0052b4;stroke-width:12.73514748"
         points="0,365.546 0,315.356 90.341,315.356 "
         id="polygon18" /><polygon
         style="fill:#0052b4;stroke-width:12.73514748"
         points="200.348,426.661 25.491,426.661 200.348,329.51 "
         id="polygon20" /></g><polygon
       style="fill:#d80027;stroke-width:66.04943085"
       points="143.693,315.358 0,395.188 0,426.662 200.348,315.358 "
       id="polygon24" /><g
       style="stroke-width:12.73514748"
       id="g32"><polygon
         style="fill:#0052b4;stroke-width:12.73514748"
         points="0,130.958 0,196.634 118.215,196.634 "
         id="polygon26" /><polygon
         style="fill:#0052b4;stroke-width:12.73514748"
         points="0,85.33 0,116.804 143.693,196.634 200.348,196.634 "
         id="polygon28" /><polygon
         style="fill:#0052b4;stroke-width:12.73514748"
         points="200.348,166.994 200.348,85.33 53.366,85.33 "
         id="polygon30" /></g><polygon
       style="fill:#f0f0f0;stroke-width:66.04943085"
       points="0,85.33 0,116.804 143.693,196.634 200.348,196.634 "
       id="polygon34" /><polygon
       style="fill:#d80027;stroke-width:66.04943085"
       points="0,85.33 0,116.804 143.693,196.634 200.348,196.634 "
       id="polygon36" /><g
       style="stroke-width:12.73514748"
       id="g42"><polygon
         style="fill:#0052b4;stroke-width:12.73514748"
         points="512,146.446 512,196.636 421.659,196.636 "
         id="polygon38" /><polygon
         style="fill:#0052b4;stroke-width:12.73514748"
         points="311.652,85.331 486.509,85.331 311.652,182.482 "
         id="polygon40" /></g><polygon
       style="fill:#d80027;stroke-width:66.04943085"
       points="368.307,196.634 512,116.804 512,85.33 311.652,196.634 "
       id="polygon44" /></g><g
     transform="translate(0,-485)"
     id="g46" /><g
     transform="translate(0,-485)"
     id="g48" /><g
     transform="translate(0,-485)"
     id="g50" /><g
     transform="translate(0,-485)"
     id="g52" /><g
     transform="translate(0,-485)"
     id="g54" /><g
     transform="translate(0,-485)"
     id="g56" /><g
     transform="translate(0,-485)"
     id="g58" /><g
     transform="translate(0,-485)"
     id="g60" /><g
     transform="translate(0,-485)"
     id="g62" /><g
     transform="translate(0,-485)"
     id="g64" /><g
     transform="translate(0,-485)"
     id="g66" /><g
     transform="translate(0,-485)"
     id="g68" /><g
     transform="translate(0,-485)"
     id="g70" /><g
     transform="translate(0,-485)"
     id="g72" /><g
     transform="translate(0,-485)"
     id="g74" /></svg>