<?xml version="1.0" encoding="UTF-8" standalone="no"?>
<svg
   xmlns:dc="http://purl.org/dc/elements/1.1/"
   xmlns:cc="http://creativecommons.org/ns#"
   xmlns:rdf="http://www.w3.org/1999/02/22-rdf-syntax-ns#"
   xmlns:svg="http://www.w3.org/2000/svg"
   xmlns="http://www.w3.org/2000/svg"
   height="27"
   width="40"
   xml:space="preserve"
   viewBox="0 0 40 27"
   y="0px"
   x="0px"
   id="Capa_1"
   version="1.1"><metadata
     id="metadata43"><rdf:RDF><cc:Work
         rdf:about=""><dc:format>image/svg+xml</dc:format><dc:type
           rdf:resource="http://purl.org/dc/dcmitype/StillImage" /><dc:title></dc:title></cc:Work></rdf:RDF></metadata><defs
     id="defs41" /><polygon
     transform="matrix(0.07809716,0,0,0.07907854,0.0258372,-6.7161944)"
     id="polygon2"
     points="341.334,426.662 512,426.662 512,85.33 341.334,85.33 170.666,85.33 0,85.33 0,426.662 170.666,426.662 "
     style="fill:#f0f0f0;stroke-width:12.7248621" /><rect
     x="0.02583717"
     id="rect4"
     height="26.992432"
     width="13.328296"
     style="fill:#6da544;stroke-width:1"
     y="0.031811282" /><rect
     id="rect6"
     height="26.992432"
     width="13.328296"
     style="fill:#d80027;stroke-width:1"
     y="0.031811282"
     x="26.68329" /><g
     transform="translate(0,-485)"
     id="g8" /><g
     transform="translate(0,-485)"
     id="g10" /><g
     transform="translate(0,-485)"
     id="g12" /><g
     transform="translate(0,-485)"
     id="g14" /><g
     transform="translate(0,-485)"
     id="g16" /><g
     transform="translate(0,-485)"
     id="g18" /><g
     transform="translate(0,-485)"
     id="g20" /><g
     transform="translate(0,-485)"
     id="g22" /><g
     transform="translate(0,-485)"
     id="g24" /><g
     transform="translate(0,-485)"
     id="g26" /><g
     transform="translate(0,-485)"
     id="g28" /><g
     transform="translate(0,-485)"
     id="g30" /><g
     transform="translate(0,-485)"
     id="g32" /><g
     transform="translate(0,-485)"
     id="g34" /><g
     transform="translate(0,-485)"
     id="g36" /></svg>