<?xml version="1.0" encoding="UTF-8" standalone="no"?>
<svg
   xmlns:dc="http://purl.org/dc/elements/1.1/"
   xmlns:cc="http://creativecommons.org/ns#"
   xmlns:rdf="http://www.w3.org/1999/02/22-rdf-syntax-ns#"
   xmlns:svg="http://www.w3.org/2000/svg"
   xmlns="http://www.w3.org/2000/svg"
   height="27"
   width="40"
   xml:space="preserve"
   viewBox="0 0 40 27"
   y="0px"
   x="0px"
   id="Capa_1"
   version="1.1"><metadata
     id="metadata47"><rdf:RDF><cc:Work
         rdf:about=""><dc:format>image/svg+xml</dc:format><dc:type
           rdf:resource="http://purl.org/dc/dcmitype/StillImage" /><dc:title></dc:title></cc:Work></rdf:RDF></metadata><defs
     id="defs45" /><rect
     y="0.084744424"
     x="0.06779661"
     id="rect2"
     height="26.983053"
     width="39.932205"
     style="fill:#d80027;stroke-width:0.99999988" /><polygon
     transform="matrix(0.07799259,0,0,0.05270128,0.06779661,0.08474595)"
     id="polygon4"
     points="196.641,264.348 196.641,512 0,512 0,0 196.641,0 "
     style="fill:#6da544;stroke-width:15.59777927" /><ellipse
     ry="5.0593224"
     rx="5.1144071"
     id="circle6"
     cy="13.576271"
     cx="15.200948"
     style="fill:#ffda44;stroke-width:0.99999982" /><path
     id="path8"
     d="m 12.323933,11.04661 v 3.162076 c 0,1.57171 1.288086,2.845869 2.876855,2.845869 1.588769,0 2.876854,-1.274211 2.876854,-2.845869 V 11.04661 Z"
     style="fill:#d80027;stroke-width:0.99999982" /><path
     id="path10"
     d="m 15.200788,15.157309 c -0.528755,0 -0.958951,-0.425563 -0.958951,-0.948623 v -1.264883 h 1.917902 v 1.264883 c 0,0.52306 -0.430196,0.948623 -0.958951,0.948623 z"
     style="fill:#f0f0f0;stroke-width:0.99999982" /><g
     transform="translate(0,-485)"
     id="g12" /><g
     transform="translate(0,-485)"
     id="g14" /><g
     transform="translate(0,-485)"
     id="g16" /><g
     transform="translate(0,-485)"
     id="g18" /><g
     transform="translate(0,-485)"
     id="g20" /><g
     transform="translate(0,-485)"
     id="g22" /><g
     transform="translate(0,-485)"
     id="g24" /><g
     transform="translate(0,-485)"
     id="g26" /><g
     transform="translate(0,-485)"
     id="g28" /><g
     transform="translate(0,-485)"
     id="g30" /><g
     transform="translate(0,-485)"
     id="g32" /><g
     transform="translate(0,-485)"
     id="g34" /><g
     transform="translate(0,-485)"
     id="g36" /><g
     transform="translate(0,-485)"
     id="g38" /><g
     transform="translate(0,-485)"
     id="g40" /></svg>