<?xml version="1.0" encoding="UTF-8" standalone="no"?>
<svg
   xmlns:dc="http://purl.org/dc/elements/1.1/"
   xmlns:cc="http://creativecommons.org/ns#"
   xmlns:rdf="http://www.w3.org/1999/02/22-rdf-syntax-ns#"
   xmlns:svg="http://www.w3.org/2000/svg"
   xmlns="http://www.w3.org/2000/svg"
   height="27"
   width="40"
   xml:space="preserve"
   viewBox="0 0 40 27"
   y="0px"
   x="0px"
   id="Capa_1"
   version="1.1"><metadata
     id="metadata45"><rdf:RDF><cc:Work
         rdf:about=""><dc:format>image/svg+xml</dc:format><dc:type
           rdf:resource="http://purl.org/dc/dcmitype/StillImage" /><dc:title></dc:title></cc:Work></rdf:RDF></metadata><defs
     id="defs43" /><polygon
     transform="matrix(0.07803334,0,0,0.0788292,3.4830273e-8,-6.6759102)"
     id="polygon2"
     points="0,85.33 0,199.107 0,312.885 0,426.662 512,426.662 512,312.885 512,199.107 512,85.33 "
     style="fill:#f0f0f0;stroke-width:12.75017929" /><rect
     x="-2.6762043e-010"
     id="rect4"
     height="26.907324"
     width="39.953072"
     style="fill:#0052b4;stroke-width:1"
     y="0.050823893" /><rect
     x="-2.6762043e-010"
     id="rect6"
     height="8.9687929"
     width="39.953072"
     style="fill:#f0f0f0;stroke-width:1"
     y="0.050823893" /><rect
     x="-2.6762043e-010"
     id="rect8"
     height="8.9687929"
     width="39.953072"
     style="fill:#d80027;stroke-width:1"
     y="17.988487" /><g
     transform="translate(0,-485)"
     id="g10" /><g
     transform="translate(0,-485)"
     id="g12" /><g
     transform="translate(0,-485)"
     id="g14" /><g
     transform="translate(0,-485)"
     id="g16" /><g
     transform="translate(0,-485)"
     id="g18" /><g
     transform="translate(0,-485)"
     id="g20" /><g
     transform="translate(0,-485)"
     id="g22" /><g
     transform="translate(0,-485)"
     id="g24" /><g
     transform="translate(0,-485)"
     id="g26" /><g
     transform="translate(0,-485)"
     id="g28" /><g
     transform="translate(0,-485)"
     id="g30" /><g
     transform="translate(0,-485)"
     id="g32" /><g
     transform="translate(0,-485)"
     id="g34" /><g
     transform="translate(0,-485)"
     id="g36" /><g
     transform="translate(0,-485)"
     id="g38" /></svg>