<?xml version="1.0" encoding="UTF-8" standalone="no"?>
<svg
   xmlns:dc="http://purl.org/dc/elements/1.1/"
   xmlns:cc="http://creativecommons.org/ns#"
   xmlns:rdf="http://www.w3.org/1999/02/22-rdf-syntax-ns#"
   xmlns:svg="http://www.w3.org/2000/svg"
   xmlns="http://www.w3.org/2000/svg"
   id="svg8"
   version="1.1"
   viewBox="0 0 13.229166 9.5250012"
   height="36"
   width="50">
  <defs
     id="defs2" />
  <metadata
     id="metadata5">
    <rdf:RDF>
      <cc:Work
         rdf:about="">
        <dc:format>image/svg+xml</dc:format>
        <dc:type
           rdf:resource="http://purl.org/dc/dcmitype/StillImage" />
        <dc:title></dc:title>
      </cc:Work>
    </rdf:RDF>
  </metadata>
  <g
     transform="translate(0,-287.47495)"
     id="layer1">
    <g
       transform="translate(-2.302514,1.7706606)"
       id="g4508">
      <path
         id="path4585"
         transform="matrix(0.26458333,0,0,0.26458333,2.302514,285.70429)"
         d="M 27.148438 0.13867188 L 6.25 4.1796875 L 6.25 31.958984 L 27.148438 35.9375 L 27.148438 0.13867188 z M 17.488281 11.503906 A 4.8150605 6.5659912 0 0 1 22.302734 18.070312 A 4.8150605 6.5659912 0 0 1 17.488281 24.636719 A 4.8150605 6.5659912 0 0 1 12.673828 18.070312 A 4.8150605 6.5659912 0 0 1 17.488281 11.503906 z M 17.488281 14.28125 A 2.7779195 3.7880719 0 0 0 14.710938 18.070312 A 2.7779195 3.7880719 0 0 0 17.488281 21.857422 A 2.7779195 3.7880719 0 0 0 20.265625 18.070312 A 2.7779195 3.7880719 0 0 0 17.488281 14.28125 z "
         style="opacity:1;vector-effect:none;fill:#0073c6;fill-opacity:1;fill-rule:evenodd;stroke:none;stroke-width:0;stroke-linecap:square;stroke-linejoin:bevel;stroke-miterlimit:3.86360002;stroke-dasharray:none;stroke-dashoffset:0;stroke-opacity:1;paint-order:stroke markers fill" />
      <path
         id="path4588"
         d="m 10.070034,289.44959 v -1.78737 h 3.290757 c 0.186533,0.0195 0.295108,0.12807 0.325734,0.32574 l -2.697751,1.86253 c -0.127969,0.10081 -0.262335,0.16324 -0.434313,0 z"
         style="opacity:1;vector-effect:none;fill:#0073c6;fill-opacity:1;fill-rule:evenodd;stroke:none;stroke-width:0;stroke-linecap:square;stroke-linejoin:bevel;stroke-miterlimit:3.86360002;stroke-dasharray:none;stroke-dashoffset:0;stroke-opacity:1;paint-order:stroke markers fill" />
      <path
         id="path4590"
         d="m 13.686525,288.98186 v 3.40769 c -0.01919,0.25463 -0.158103,0.34464 -0.354967,0.35497 h -3.261523 v -2.31773 l 0.509482,0.39255 c 0.131597,0.1039 0.272112,0.11862 0.425961,0 z"
         style="opacity:1;vector-effect:none;fill:#0073c6;fill-opacity:1;fill-rule:evenodd;stroke:none;stroke-width:0;stroke-linecap:square;stroke-linejoin:bevel;stroke-miterlimit:3.86360002;stroke-dasharray:none;stroke-dashoffset:0;stroke-opacity:1;paint-order:stroke markers fill" />
    </g>
  </g>
</svg>
