<?xml version="1.0" encoding="UTF-8" standalone="no"?>
<svg
   xmlns:dc="http://purl.org/dc/elements/1.1/"
   xmlns:cc="http://creativecommons.org/ns#"
   xmlns:rdf="http://www.w3.org/1999/02/22-rdf-syntax-ns#"
   xmlns:svg="http://www.w3.org/2000/svg"
   xmlns="http://www.w3.org/2000/svg"
   version="1.1"
   viewBox="0 0 18 15"
   enable-background="new 0 0 26 26"
   id="svg4"
   width="18"
   height="15">
  <metadata
     id="metadata10">
    <rdf:RDF>
      <cc:Work
         rdf:about="">
        <dc:format>image/svg+xml</dc:format>
        <dc:type
           rdf:resource="http://purl.org/dc/dcmitype/StillImage" />
        <dc:title></dc:title>
      </cc:Work>
    </rdf:RDF>
  </metadata>
  <defs
     id="defs8" />
  <path
     d="M 0.26254238,8.7508475 C 0.12423729,8.6125425 0.05508475,8.4050847 0.05508475,8.2667797 c 0,-0.1383051 0.06226219,-0.3530148 0.20745763,-0.4840678 L 1.8389096,6.3598875 c 0.2903909,-0.262106 0.6915254,-0.2766102 0.9681356,0 l 0.069152,0.069152 3.1951582,3.5346885 c 0.138305,0.138305 0.3457627,0.138305 0.4840677,0 L 15.318501,0.89683666 c 0,0 0.0465,-0.0439043 0.06915,-0.0625 0.27661,-0.2766102 0.686914,-0.20941981 0.968136,0.0625 l 1.471499,1.42282444 c 0.281222,0.2719198 0.27661,0.6915254 0,0.9681356 v 0 L 6.7628813,14.767118 c -0.1383051,0.138305 -0.2766102,0.207458 -0.4840678,0.207458 -0.2074576,0 -0.3457627,-0.06915 -0.4840678,-0.207458 L 0.40084746,8.9583055 Z"
     id="path2"
     style="fill:#237223;fill-opacity:1;stroke-width:1" />
</svg>
