<?xml version="1.0" encoding="iso-8859-1"?>
<!-- Generator: Adobe Illustrator 19.0.0, SVG Export Plug-In . SVG Version: 6.00 Build 0)  -->
<svg version="1.1" id="Capa_1" xmlns="http://www.w3.org/2000/svg" xmlns:xlink="http://www.w3.org/1999/xlink" x="0px" y="0px"
	 viewBox="0 0 375.023 375.023" style="enable-background:new 0 0 375.023 375.023;" xml:space="preserve">
<g>
	<g>
		<path fill="#ffffff" d="M81.305,293.711c-58.3-58.5-58.3-153.8,0-212.3l31.1,31.1v-93.7h-93.7l36.2,36.2c-73.2,73.1-73.2,192,0,265.2
			c46.2,46.1,110.5,63.2,170.1,51v-38.6C175.305,345.511,120.205,332.611,81.305,293.711z"/>
	</g>
</g>
<g>
	<g>
		<path fill="#ffffff" d="M320.105,55.011c-46.2-46.3-110.5-63.4-170.1-51.2v38.6c49.7-12.9,104.9,0.2,143.7,39c58.5,58.5,58.5,153.8,0,212.3
			l-31.1-31.1v93.8h93.8l-36.2-36.2C393.305,247.011,393.305,128.111,320.105,55.011z"/>
	</g>
</g>
<g>
</g>
<g>
</g>
<g>
</g>
<g>
</g>
<g>
</g>
<g>
</g>
<g>
</g>
<g>
</g>
<g>
</g>
<g>
</g>
<g>
</g>
<g>
</g>
<g>
</g>
<g>
</g>
<g>
</g>
</svg>
