<?xml version="1.0" encoding="UTF-8" standalone="no"?>
<svg
   xmlns:dc="http://purl.org/dc/elements/1.1/"
   xmlns:cc="http://creativecommons.org/ns#"
   xmlns:rdf="http://www.w3.org/1999/02/22-rdf-syntax-ns#"
   xmlns:svg="http://www.w3.org/2000/svg"
   xmlns="http://www.w3.org/2000/svg"
   xml:space="preserve"
   viewBox="0 0 17 16.999999"
   height="17"
   width="17"
   y="0px"
   x="0px"
   id="Capa_1"
   version="1.1"><metadata
     id="metadata41"><rdf:RDF><cc:Work
         rdf:about=""><dc:format>image/svg+xml</dc:format><dc:type
           rdf:resource="http://purl.org/dc/dcmitype/StillImage" /><dc:title></dc:title></cc:Work></rdf:RDF></metadata><defs
     id="defs39" /><g
     transform="matrix(0.04872127,0,0,0.04872127,-2.3781968e-4,0.02776636)"
     style="fill:#982121;fill-opacity:1;stroke-width:20.52491951"
     id="g4"><path
       style="fill:#982121;fill-opacity:1;stroke-width:20.52491951"
       id="path2"
       d="M 336.559,68.611 231.016,174.165 336.559,279.714 c 15.699,15.705 15.699,41.145 0,56.85 -7.844,7.844 -18.128,11.769 -28.407,11.769 -10.296,0 -20.581,-3.919 -28.419,-11.769 L 174.167,231.003 68.609,336.563 c -7.843,7.844 -18.128,11.769 -28.416,11.769 -10.285,0 -20.563,-3.919 -28.413,-11.769 -15.699,-15.698 -15.699,-41.139 0,-56.85 L 117.32,174.164 11.774,68.611 C -3.925,52.912 -3.925,27.466 11.774,11.767 27.47,-3.92 52.901,-3.92 68.603,11.767 L 174.166,117.321 279.721,11.767 c 15.705,-15.687 41.139,-15.687 56.832,0 15.705,15.699 15.705,41.145 0.006,56.844 z" /></g><g
     transform="translate(0,-331.33401)"
     id="g6" /><g
     transform="translate(0,-331.33401)"
     id="g8" /><g
     transform="translate(0,-331.33401)"
     id="g10" /><g
     transform="translate(0,-331.33401)"
     id="g12" /><g
     transform="translate(0,-331.33401)"
     id="g14" /><g
     transform="translate(0,-331.33401)"
     id="g16" /><g
     transform="translate(0,-331.33401)"
     id="g18" /><g
     transform="translate(0,-331.33401)"
     id="g20" /><g
     transform="translate(0,-331.33401)"
     id="g22" /><g
     transform="translate(0,-331.33401)"
     id="g24" /><g
     transform="translate(0,-331.33401)"
     id="g26" /><g
     transform="translate(0,-331.33401)"
     id="g28" /><g
     transform="translate(0,-331.33401)"
     id="g30" /><g
     transform="translate(0,-331.33401)"
     id="g32" /><g
     transform="translate(0,-331.33401)"
     id="g34" /></svg>