<?xml version="1.0" encoding="UTF-8" standalone="no"?>
<!-- Created with Inkscape (http://www.inkscape.org/) -->

<svg
   xmlns:dc="http://purl.org/dc/elements/1.1/"
   xmlns:cc="http://creativecommons.org/ns#"
   xmlns:rdf="http://www.w3.org/1999/02/22-rdf-syntax-ns#"
   xmlns:svg="http://www.w3.org/2000/svg"
   xmlns="http://www.w3.org/2000/svg"
   xmlns:sodipodi="http://sodipodi.sourceforge.net/DTD/sodipodi-0.dtd"
   xmlns:inkscape="http://www.inkscape.org/namespaces/inkscape"
   width="500"
   height="500"
   viewBox="0 0 132.29166 132.29167"
   version="1.1"
   id="svg8"
   inkscape:version="0.92.1 r15371"
   sodipodi:docname="nofoto.svg">
  <defs
     id="defs2" />
  <sodipodi:namedview
     id="base"
     pagecolor="#ffffff"
     bordercolor="#666666"
     borderopacity="1.0"
     inkscape:pageopacity="0.0"
     inkscape:pageshadow="2"
     inkscape:zoom="0.7"
     inkscape:cx="239.90283"
     inkscape:cy="237.62642"
     inkscape:document-units="mm"
     inkscape:current-layer="layer1"
     showgrid="false"
     showguides="true"
     inkscape:guide-bbox="true"
     units="px"
     inkscape:window-width="1920"
     inkscape:window-height="1027"
     inkscape:window-x="1912"
     inkscape:window-y="-8"
     inkscape:window-maximized="1" />
  <metadata
     id="metadata5">
    <rdf:RDF>
      <cc:Work
         rdf:about="">
        <dc:format>image/svg+xml</dc:format>
        <dc:type
           rdf:resource="http://purl.org/dc/dcmitype/StillImage" />
        <dc:title></dc:title>
      </cc:Work>
    </rdf:RDF>
  </metadata>
  <g
     inkscape:label="Capa 1"
     inkscape:groupmode="layer"
     id="layer1"
     transform="translate(0,-164.70832)">
    <rect
       style="opacity:1;vector-effect:none;fill:#dddddd;fill-opacity:1;fill-rule:evenodd;stroke:none;stroke-width:0;stroke-linecap:square;stroke-linejoin:bevel;stroke-miterlimit:3.86360002;stroke-dasharray:none;stroke-dashoffset:0;stroke-opacity:1;paint-order:stroke markers fill"
       id="rect4549"
       width="132.28879"
       height="132.25388"
       x="0.012872088"
       y="164.74106" />
    <path
       style="opacity:1;vector-effect:none;fill:#a1a1a1;fill-opacity:1;fill-rule:evenodd;stroke:none;stroke-width:0;stroke-linecap:square;stroke-linejoin:bevel;stroke-miterlimit:3.86360002;stroke-dasharray:none;stroke-dashoffset:0;stroke-opacity:1;paint-order:stroke markers fill"
       d="m 38.319379,214.59967 h -3.304908 c -2.353217,0 -5.104384,1.97948 -5.104385,4.16978 v 31.20145 c 1e-6,3.15422 3.18391,5.32006 6.182775,5.32006 h 40.042165 c 1.415052,0 1.425088,-1.17067 0.575148,-2.013 l -4.850721,-4.7221 c -12.7775,5.39786 -25.599651,-7.0469 -19.937122,-20.338 z"
       id="path4515"
       inkscape:connector-curvature="0"
       sodipodi:nodetypes="cccccccccc" />
    <path
       style="opacity:1;vector-effect:none;fill:#a1a1a1;fill-opacity:1;fill-rule:evenodd;stroke:none;stroke-width:0;stroke-linecap:square;stroke-linejoin:bevel;stroke-miterlimit:3.86360002;stroke-dasharray:none;stroke-dashoffset:0;stroke-opacity:1;paint-order:stroke markers fill"
       d="m 80.757039,237.62584 17.553075,16.92269 c 2.638916,-0.82682 3.162036,-3.12838 3.162036,-5.22467 v -28.6852 c 0,-2.72847 -1.795206,-6.03899 -5.176279,-6.03899 h -4.313562 c 0,0 -0.552772,-3.61272 -3.450848,-3.49398 -2.898076,0.11873 -3.091392,3.49398 -3.091392,3.49398 h -6.757916 c -2.563955,-1.89339 -4.692204,-4.22254 -8.699073,-4.67302 h -6.829806 c -3.209988,0.61453 -4.545153,1.69839 -6.221722,2.88797 l 6.173885,6.6953 c 9.448198,-1.85477 19.809618,6.16941 17.651602,18.11592 z"
       id="path4517"
       inkscape:connector-curvature="0"
       sodipodi:nodetypes="cccccczccccccc" />
    <path
       style="opacity:1;vector-effect:none;fill:#a1a1a1;fill-opacity:1;fill-rule:evenodd;stroke:none;stroke-width:0;stroke-linecap:square;stroke-linejoin:bevel;stroke-miterlimit:3.86360002;stroke-dasharray:none;stroke-dashoffset:0;stroke-opacity:1;paint-order:stroke markers fill"
       d="m 65.893928,179.63695 a 52.769261,52.769261 0 0 0 -52.769206,52.76921 52.769261,52.769261 0 0 0 52.769206,52.76922 52.769261,52.769261 0 0 0 52.769262,-52.76922 52.769261,52.769261 0 0 0 -52.769262,-52.76921 z m 0,8.62719 a 44.142134,44.142134 0 0 1 44.142082,44.14202 44.142134,44.142134 0 0 1 -10.373226,28.42808 L 37.497704,198.66921 A 44.142134,44.142134 0 0 1 65.893928,188.26414 Z M 31.91164,204.2592 94.026785,266.3743 A 44.142134,44.142134 0 0 1 65.893928,276.54818 44.142134,44.142134 0 0 1 21.751511,232.40616 44.142134,44.142134 0 0 1 31.91164,204.2592 Z"
       id="path4519"
       inkscape:connector-curvature="0" />
  </g>
</svg>
