<?xml version="1.0" encoding="UTF-8" standalone="no"?>
<svg
   xmlns:dc="http://purl.org/dc/elements/1.1/"
   xmlns:cc="http://creativecommons.org/ns#"
   xmlns:rdf="http://www.w3.org/1999/02/22-rdf-syntax-ns#"
   xmlns:svg="http://www.w3.org/2000/svg"
   xmlns="http://www.w3.org/2000/svg"
   id="svg8"
   version="1.1"
   viewBox="0 0 132.29166 132.29167"
   height="500"
   width="500">
  <defs
     id="defs2" />
  <metadata
     id="metadata5">
    <rdf:RDF>
      <cc:Work
         rdf:about="">
        <dc:format>image/svg+xml</dc:format>
        <dc:type
           rdf:resource="http://purl.org/dc/dcmitype/StillImage" />
        <dc:title></dc:title>
      </cc:Work>
    </rdf:RDF>
  </metadata>
  <g
     transform="translate(0,-164.70832)"
     id="layer1">
    <rect
       y="164.74106"
       x="0.012872088"
       height="132.25388"
       width="132.28879"
       id="rect4549"
       style="opacity:1;vector-effect:none;fill:#dddddd;fill-opacity:1;fill-rule:evenodd;stroke:none;stroke-width:0;stroke-linecap:square;stroke-linejoin:bevel;stroke-miterlimit:3.86360002;stroke-dasharray:none;stroke-dashoffset:0;stroke-opacity:1;paint-order:stroke markers fill" />
    <path
       id="path4519"
       d="m 65.893928,179.63695 a 52.769261,52.769261 0 0 0 -52.769206,52.76921 52.769261,52.769261 0 0 0 52.769206,52.76922 52.769261,52.769261 0 0 0 52.769262,-52.76922 52.769261,52.769261 0 0 0 -52.769262,-52.76921 z m 0,8.62719 a 44.142134,44.142134 0 0 1 44.142082,44.14202 44.142134,44.142134 0 0 1 -10.373226,28.42808 L 37.497704,198.66921 A 44.142134,44.142134 0 0 1 65.893928,188.26414 Z M 31.91164,204.2592 94.026785,266.3743 A 44.142134,44.142134 0 0 1 65.893928,276.54818 44.142134,44.142134 0 0 1 21.751511,232.40616 44.142134,44.142134 0 0 1 31.91164,204.2592 Z"
       style="opacity:1;vector-effect:none;fill:#a1a1a1;fill-opacity:1;fill-rule:evenodd;stroke:none;stroke-width:0;stroke-linecap:square;stroke-linejoin:bevel;stroke-miterlimit:3.86360002;stroke-dasharray:none;stroke-dashoffset:0;stroke-opacity:1;paint-order:stroke markers fill" />
    <path
       id="path4568"
       transform="matrix(0.26458333,0,0,0.26458333,0,164.70832)"
       d="M 250.375 115.60156 A 73.603792 73.603792 0 0 0 186.22461 153.19727 L 287.22461 252.81445 A 73.603792 73.603792 0 0 0 323.97852 189.20703 A 73.603792 73.603792 0 0 0 250.375 115.60156 z "
       style="opacity:1;vector-effect:none;fill:#a1a1a1;fill-opacity:1;fill-rule:evenodd;stroke:none;stroke-width:0;stroke-linecap:square;stroke-linejoin:bevel;stroke-miterlimit:3.86360002;stroke-dasharray:none;stroke-dashoffset:0;stroke-opacity:1;paint-order:stroke markers fill" />
    <path
       id="path4570"
       transform="matrix(0.26458333,0,0,0.26458333,0,164.70832)"
       d="M 199.83594 263.2793 C 157.54386 274.4467 134.21535 300.4544 120.60742 334.07031 C 174.61259 408.37786 265.29836 423.17585 332.28125 377.875 L 231.83789 278.80664 C 221.75857 276.1109 211.13667 271.13212 199.83594 263.2793 z M 301.57031 263.74805 C 300.90994 264.1744 300.24688 264.58819 299.58398 265.00391 L 373.4375 337.8457 C 375.33609 335.25363 377.19372 332.5955 378.99414 329.84961 C 363.42007 301.59186 340.27084 273.57002 301.57031 263.74805 z "
       style="opacity:1;vector-effect:none;fill:#a1a1a1;fill-opacity:1;fill-rule:evenodd;stroke:none;stroke-width:0;stroke-linecap:square;stroke-linejoin:bevel;stroke-miterlimit:3.86360002;stroke-dasharray:none;stroke-dashoffset:0;stroke-opacity:1;paint-order:stroke markers fill" />
  </g>
</svg>
